<svg width="16" height="18" viewBox="0 0 16 18" fill="none" xmlns="http://www.w3.org/2000/svg">
<path d="M3.89613 12.2825C3.10125 12.2825 2.45473 11.9953 1.96992 11.425C1.48512 10.8548 1.16695 10.0086 0.981679 8.77743C0.708866 6.96302 0.979569 5.43372 1.74387 4.47149C2.19387 3.90477 2.78449 3.57712 3.45176 3.52438C4.02305 3.47868 4.87699 3.71036 5.70176 5.07126C6.2182 5.92344 6.6109 7.05548 6.7793 8.17696C6.98285 9.53083 6.83133 10.5275 6.31594 11.2233C5.90672 11.7759 5.27742 12.1183 4.44527 12.2428C4.26345 12.2695 4.07991 12.2828 3.89613 12.2825ZM5.2732 17.0191C4.80879 17.0191 4.33805 16.8704 3.91406 16.5846C3.30225 16.17 2.87876 15.5307 2.73562 14.8057C2.63543 14.2903 2.69555 13.8807 2.91914 13.5527C3.2823 13.0201 3.9341 12.9002 4.62387 12.7729C4.69664 12.7596 4.77047 12.7462 4.84535 12.7318C5.00426 12.7016 5.16668 12.6615 5.32418 12.6225C5.9141 12.4769 6.52441 12.3261 7.0282 12.684C7.36535 12.9231 7.55555 13.3295 7.6125 13.9257C7.67719 14.6137 7.52953 15.3003 7.1966 15.8593C6.83836 16.4608 6.30117 16.8584 5.68488 16.9794C5.54926 17.0059 5.41139 17.0192 5.2732 17.0191ZM12.4862 8.90751C12.3026 8.90689 12.1193 8.89279 11.9378 8.86532C11.106 8.74227 10.4767 8.3995 10.0675 7.84579C9.55207 7.15005 9.39949 6.15372 9.6041 4.7995C9.7725 3.67696 10.1641 2.54598 10.6781 1.69696C11.4987 0.340984 12.3537 0.105789 12.9281 0.147273C13.5933 0.195789 14.1829 0.518875 14.6336 1.08243C15.4031 2.04466 15.6759 3.57852 15.4021 5.40102C15.2168 6.63149 14.9029 7.47348 14.4138 8.04864C13.9248 8.6238 13.2811 8.90751 12.4862 8.90751ZM11.1091 13.6441C10.9713 13.6441 10.8338 13.6308 10.6985 13.6044C10.0812 13.4834 9.54398 13.0858 9.1868 12.4843C8.85387 11.9253 8.70621 11.2387 8.7709 10.5507C8.82715 9.95305 9.01699 9.54805 9.3552 9.30864C9.85898 8.9511 10.4693 9.10157 11.0592 9.24747C11.2167 9.28614 11.3791 9.32622 11.538 9.3568L11.7592 9.39794C12.4493 9.52485 13.1011 9.64403 13.4643 10.1774C13.6879 10.5054 13.748 10.9156 13.6478 11.4303C13.5048 12.1555 13.0813 12.7949 12.4693 13.2096C12.0429 13.4958 11.5721 13.6441 11.1091 13.6441Z" fill="#F5B041"/>
</svg>
