<svg width="19" height="19" viewBox="0 0 19 19" fill="none" xmlns="http://www.w3.org/2000/svg">
<path d="M9.72473 0.142914C7.33778 0.142914 5.0486 1.09113 3.36077 2.77895C1.67294 4.46678 0.724731 6.75597 0.724731 9.14291C0.724731 11.5299 1.67294 13.819 3.36077 15.5069C5.0486 17.1947 7.33778 18.1429 9.72473 18.1429C12.1117 18.1429 14.4009 17.1947 16.0887 15.5069C17.7765 13.819 18.7247 11.5299 18.7247 9.14291C18.7247 6.75597 17.7765 4.46678 16.0887 2.77895C14.4009 1.09113 12.1117 0.142914 9.72473 0.142914ZM2.97473 9.14291C2.97473 8.25649 3.14933 7.37875 3.48854 6.5598C3.82776 5.74085 4.32496 4.99674 4.95176 4.36994C5.57856 3.74315 6.32267 3.24595 7.14162 2.90673C7.96057 2.56751 8.83831 2.39291 9.72473 2.39291C10.6112 2.39291 11.4889 2.56751 12.3078 2.90673C13.1268 3.24595 13.8709 3.74315 14.4977 4.36994C15.1245 4.99674 15.6217 5.74085 15.9609 6.5598C16.3001 7.37875 16.4747 8.25649 16.4747 9.14291C16.4747 10.9331 15.7636 12.65 14.4977 13.9159C13.2318 15.1818 11.5149 15.8929 9.72473 15.8929C7.93452 15.8929 6.21763 15.1818 4.95176 13.9159C3.68589 12.65 2.97473 10.9331 2.97473 9.14291ZM13.5197 6.47291C13.7304 6.68385 13.8487 6.96979 13.8487 7.26791C13.8487 7.56604 13.7304 7.85198 13.5197 8.06291L9.39473 12.1879C9.18379 12.3986 8.89786 12.5169 8.59973 12.5169C8.30161 12.5169 8.01567 12.3986 7.80473 12.1879L6.30473 10.6879C6.10601 10.4747 5.99783 10.1926 6.00297 9.90113C6.00811 9.60968 6.12618 9.3316 6.3323 9.12548C6.53842 8.91936 6.8165 8.80129 7.10795 8.79615C7.3994 8.79101 7.68147 8.89919 7.89473 9.09791L8.59973 9.80291L11.9297 6.47291C12.1407 6.26224 12.4266 6.1439 12.7247 6.1439C13.0229 6.1439 13.3088 6.26224 13.5197 6.47291Z" fill="#F5B041"/>
</svg>
