<svg width="27" height="26" viewBox="0 0 27 26" fill="none" xmlns="http://www.w3.org/2000/svg">
<path d="M21.119 24.8571C22.9603 24.8571 23.8809 23.9365 23.8809 23.0159C23.8809 22.0953 22.9603 21.1747 22.0397 21.1747C23.8809 21.1747 24.8015 20.2541 24.8015 19.3334C24.8015 18.4128 23.8809 17.4922 22.9603 17.4922C24.8015 17.4922 25.7221 16.5716 25.7221 15.651C25.7221 14.7304 24.7965 13.8148 23.8759 13.8148C25.7171 13.8148 26.6377 12.8992 26.6377 11.9786C26.6377 11.058 25.7171 10.1374 24.7965 10.1374L17.4366 10.1374C17.8944 8.29613 18.3572 6.45994 18.3572 5.53932C18.3572 3.69809 17.4366 1.86189 16.9788 1.39907C16.9687 1.38901 16.521 0.941279 15.6004 0.941279C14.222 0.941279 14.222 2.31968 14.222 2.31968C14.222 2.34484 13.7642 4.61871 13.7642 5.53932C13.7642 6.45994 11.923 10.1374 11.0023 11.058L10.0817 11.5158L10.0817 24.3943L11.0023 24.8521L21.119 24.8521L21.119 24.8571ZM8.33105 25.6872L9.16111 23.9365L9.16111 11.9786L8.2405 11.058L1.00638 11.058C0.930921 11.6617 0.880614 12.2754 0.880614 12.8992C0.880614 18.3776 3.88393 23.1517 8.33105 25.6872Z" fill="white"/>
</svg>
